<mxfile host="app.diagrams.net" modified="2020-10-07T08:15:42.965Z" agent="5.0 (Windows)" etag="kA046NIKrnnmthMKVtE9" version="13.7.7" type="github">
  <diagram id="zEI9NuIZSy3O7FJYNldC" name="Page-1">
    <mxGraphModel dx="910" dy="487" grid="1" gridSize="10" guides="1" tooltips="1" connect="1" arrows="1" fold="1" page="1" pageScale="1" pageWidth="1169" pageHeight="827" math="0" shadow="0">
      <root>
        <mxCell id="0" />
        <mxCell id="1" parent="0" />
        <mxCell id="lehFZ3blt-byo1f6vuGY-1" value="Public Communication - Customer Feedback Survey" style="swimlane;html=1;childLayout=stackLayout;resizeParent=1;resizeParentMax=0;horizontal=1;startSize=20;horizontalStack=0;" vertex="1" parent="1">
          <mxGeometry x="10" y="10" width="1150" height="570" as="geometry" />
        </mxCell>
        <mxCell id="lehFZ3blt-byo1f6vuGY-2" value="Clerk/PCO/CCO" style="swimlane;html=1;startSize=20;horizontal=0;" vertex="1" parent="lehFZ3blt-byo1f6vuGY-1">
          <mxGeometry y="20" width="1150" height="190" as="geometry" />
        </mxCell>
        <mxCell id="lehFZ3blt-byo1f6vuGY-10" value="Start" style="rounded=1;whiteSpace=wrap;html=1;" vertex="1" parent="lehFZ3blt-byo1f6vuGY-2">
          <mxGeometry x="140" y="10" width="100" height="40" as="geometry" />
        </mxCell>
        <mxCell id="lehFZ3blt-byo1f6vuGY-13" value="Receive Communication to the Assembly" style="rounded=0;whiteSpace=wrap;html=1;" vertex="1" parent="lehFZ3blt-byo1f6vuGY-2">
          <mxGeometry x="130" y="110" width="120" height="60" as="geometry" />
        </mxCell>
        <mxCell id="lehFZ3blt-byo1f6vuGY-12" value="" style="edgeStyle=orthogonalEdgeStyle;rounded=0;orthogonalLoop=1;jettySize=auto;html=1;entryX=0.5;entryY=0;entryDx=0;entryDy=0;" edge="1" parent="lehFZ3blt-byo1f6vuGY-2" source="lehFZ3blt-byo1f6vuGY-10" target="lehFZ3blt-byo1f6vuGY-13">
          <mxGeometry relative="1" as="geometry">
            <mxPoint x="190" y="110" as="targetPoint" />
          </mxGeometry>
        </mxCell>
        <mxCell id="lehFZ3blt-byo1f6vuGY-3" value="OC/PCO" style="swimlane;html=1;startSize=20;horizontal=0;" vertex="1" parent="lehFZ3blt-byo1f6vuGY-1">
          <mxGeometry y="210" width="1150" height="120" as="geometry" />
        </mxCell>
        <mxCell id="lehFZ3blt-byo1f6vuGY-14" value="Acknowledgement of receipt of communication" style="whiteSpace=wrap;html=1;rounded=0;" vertex="1" parent="lehFZ3blt-byo1f6vuGY-3">
          <mxGeometry x="130" y="40" width="120" height="60" as="geometry" />
        </mxCell>
        <mxCell id="lehFZ3blt-byo1f6vuGY-4" value="Clerk/PCO" style="swimlane;html=1;startSize=20;horizontal=0;" vertex="1" parent="lehFZ3blt-byo1f6vuGY-1">
          <mxGeometry y="330" width="1150" height="120" as="geometry" />
        </mxCell>
        <mxCell id="lehFZ3blt-byo1f6vuGY-20" value="Track the period of response" style="whiteSpace=wrap;html=1;rounded=0;" vertex="1" parent="lehFZ3blt-byo1f6vuGY-4">
          <mxGeometry x="510" y="30" width="120" height="60" as="geometry" />
        </mxCell>
        <mxCell id="lehFZ3blt-byo1f6vuGY-9" value="PCO" style="swimlane;html=1;startSize=20;horizontal=0;" vertex="1" parent="lehFZ3blt-byo1f6vuGY-1">
          <mxGeometry y="450" width="1150" height="120" as="geometry" />
        </mxCell>
        <mxCell id="lehFZ3blt-byo1f6vuGY-16" value="Record customer request" style="whiteSpace=wrap;html=1;rounded=0;" vertex="1" parent="lehFZ3blt-byo1f6vuGY-9">
          <mxGeometry x="130" y="40" width="120" height="60" as="geometry" />
        </mxCell>
        <mxCell id="lehFZ3blt-byo1f6vuGY-15" value="" style="edgeStyle=orthogonalEdgeStyle;rounded=0;orthogonalLoop=1;jettySize=auto;html=1;" edge="1" parent="lehFZ3blt-byo1f6vuGY-1" source="lehFZ3blt-byo1f6vuGY-13" target="lehFZ3blt-byo1f6vuGY-14">
          <mxGeometry relative="1" as="geometry" />
        </mxCell>
        <mxCell id="lehFZ3blt-byo1f6vuGY-17" value="" style="edgeStyle=orthogonalEdgeStyle;rounded=0;orthogonalLoop=1;jettySize=auto;html=1;" edge="1" parent="lehFZ3blt-byo1f6vuGY-1" source="lehFZ3blt-byo1f6vuGY-14" target="lehFZ3blt-byo1f6vuGY-16">
          <mxGeometry relative="1" as="geometry" />
        </mxCell>
        <mxCell id="lehFZ3blt-byo1f6vuGY-21" value="" style="edgeStyle=orthogonalEdgeStyle;rounded=0;orthogonalLoop=1;jettySize=auto;html=1;" edge="1" parent="1" source="lehFZ3blt-byo1f6vuGY-18" target="lehFZ3blt-byo1f6vuGY-20">
          <mxGeometry relative="1" as="geometry" />
        </mxCell>
        <mxCell id="lehFZ3blt-byo1f6vuGY-18" value="Forward to the relevant officer for action" style="whiteSpace=wrap;html=1;rounded=0;" vertex="1" parent="1">
          <mxGeometry x="340" y="500" width="120" height="60" as="geometry" />
        </mxCell>
        <mxCell id="lehFZ3blt-byo1f6vuGY-19" value="" style="edgeStyle=orthogonalEdgeStyle;rounded=0;orthogonalLoop=1;jettySize=auto;html=1;" edge="1" parent="1" source="lehFZ3blt-byo1f6vuGY-16" target="lehFZ3blt-byo1f6vuGY-18">
          <mxGeometry relative="1" as="geometry" />
        </mxCell>
      </root>
    </mxGraphModel>
  </diagram>
</mxfile>
